<mxfile host="app.diagrams.net" modified="2023-08-25T11:14:09.008Z" agent="Mozilla/5.0 (Windows NT 10.0; Win64; x64) AppleWebKit/537.36 (KHTML, like Gecko) Chrome/116.0.0.0 Safari/537.36" etag="23ww2hpphoarVxquCFdO" version="21.6.9" type="github">
  <diagram name="Page-1" id="L4X5WL6Z1oIuPHtUy80s">
    <mxGraphModel dx="2022" dy="663" grid="1" gridSize="10" guides="1" tooltips="1" connect="1" arrows="1" fold="1" page="1" pageScale="1" pageWidth="827" pageHeight="1169" math="0" shadow="0">
      <root>
        <mxCell id="0" />
        <mxCell id="1" parent="0" />
        <mxCell id="-WuvEJEpbSpuTWGnb0q6-1" value="&lt;font style=&quot;font-size: 14px;&quot;&gt;Com. Athentification&lt;/font&gt;" style="shape=umlFrame;whiteSpace=wrap;html=1;pointerEvents=0;recursiveResize=0;container=1;collapsible=0;width=330;movable=1;resizable=1;rotatable=1;deletable=1;editable=1;locked=0;connectable=1;height=40;" vertex="1" parent="1">
          <mxGeometry x="-110" y="120" width="1060" height="580" as="geometry" />
        </mxCell>
        <mxCell id="-WuvEJEpbSpuTWGnb0q6-2" value="Utilisateur" style="shape=umlActor;verticalLabelPosition=bottom;verticalAlign=top;html=1;outlineConnect=0;" vertex="1" parent="1">
          <mxGeometry x="-80" y="510" width="30" height="60" as="geometry" />
        </mxCell>
        <mxCell id="-WuvEJEpbSpuTWGnb0q6-5" style="edgeStyle=orthogonalEdgeStyle;rounded=1;orthogonalLoop=1;jettySize=auto;html=1;exitX=0.75;exitY=0;exitDx=0;exitDy=0;entryX=1.003;entryY=0.648;entryDx=0;entryDy=0;entryPerimeter=0;endArrow=none;endFill=0;" edge="1" parent="1" target="-WuvEJEpbSpuTWGnb0q6-3">
          <mxGeometry relative="1" as="geometry">
            <mxPoint x="421" y="230" as="targetPoint" />
            <mxPoint x="385" y="210" as="sourcePoint" />
            <Array as="points">
              <mxPoint x="385" y="190" />
              <mxPoint x="460" y="190" />
              <mxPoint x="460" y="229" />
            </Array>
          </mxGeometry>
        </mxCell>
        <mxCell id="-WuvEJEpbSpuTWGnb0q6-6" style="rounded=0;orthogonalLoop=1;jettySize=auto;html=1;exitX=1;exitY=1;exitDx=0;exitDy=0;entryX=0;entryY=0;entryDx=0;entryDy=0;endArrow=none;endFill=0;" edge="1" parent="1" source="-WuvEJEpbSpuTWGnb0q6-3" target="-WuvEJEpbSpuTWGnb0q6-4">
          <mxGeometry relative="1" as="geometry" />
        </mxCell>
        <mxCell id="-WuvEJEpbSpuTWGnb0q6-8" style="rounded=0;orthogonalLoop=1;jettySize=auto;html=1;exitX=0;exitY=1;exitDx=0;exitDy=0;entryX=0.5;entryY=0;entryDx=0;entryDy=0;entryPerimeter=0;endArrow=none;endFill=0;" edge="1" parent="1" source="-WuvEJEpbSpuTWGnb0q6-3" target="-WuvEJEpbSpuTWGnb0q6-2">
          <mxGeometry relative="1" as="geometry" />
        </mxCell>
        <mxCell id="-WuvEJEpbSpuTWGnb0q6-3" value=":Systeme" style="rounded=0;whiteSpace=wrap;html=1;" vertex="1" parent="1">
          <mxGeometry x="294" y="210" width="120" height="30" as="geometry" />
        </mxCell>
        <mxCell id="-WuvEJEpbSpuTWGnb0q6-4" value="Base de  données" style="rounded=0;whiteSpace=wrap;html=1;" vertex="1" parent="1">
          <mxGeometry x="720" y="529.97" width="120" height="30" as="geometry" />
        </mxCell>
        <mxCell id="-WuvEJEpbSpuTWGnb0q6-7" style="edgeStyle=orthogonalEdgeStyle;rounded=1;orthogonalLoop=1;jettySize=auto;html=1;exitX=0.75;exitY=0;exitDx=0;exitDy=0;entryX=1;entryY=0.75;entryDx=0;entryDy=0;endArrow=none;endFill=0;strokeColor=default;" edge="1" parent="1" source="-WuvEJEpbSpuTWGnb0q6-4" target="-WuvEJEpbSpuTWGnb0q6-4">
          <mxGeometry relative="1" as="geometry">
            <Array as="points">
              <mxPoint x="810" y="519.97" />
              <mxPoint x="880" y="519.97" />
              <mxPoint x="880" y="551.97" />
            </Array>
          </mxGeometry>
        </mxCell>
        <mxCell id="-WuvEJEpbSpuTWGnb0q6-11" value="" style="endArrow=classic;startArrow=none;html=1;rounded=0;startFill=0;" edge="1" parent="1">
          <mxGeometry width="50" height="50" relative="1" as="geometry">
            <mxPoint x="-10" y="492" as="sourcePoint" />
            <mxPoint x="97" y="410" as="targetPoint" />
          </mxGeometry>
        </mxCell>
        <mxCell id="-WuvEJEpbSpuTWGnb0q6-14" value="1: Demande de connexion&lt;br/&gt;" style="text;html=1;align=center;verticalAlign=middle;resizable=0;points=[];autosize=1;strokeColor=none;fillColor=none;" vertex="1" parent="1">
          <mxGeometry x="29" y="470" width="160" height="30" as="geometry" />
        </mxCell>
        <mxCell id="-WuvEJEpbSpuTWGnb0q6-15" value="4.validerDonnées(données)" style="text;html=1;align=center;verticalAlign=middle;resizable=0;points=[];autosize=1;strokeColor=none;fillColor=none;" vertex="1" parent="1">
          <mxGeometry x="365" y="160" width="170" height="30" as="geometry" />
        </mxCell>
        <mxCell id="-WuvEJEpbSpuTWGnb0q6-16" value="" style="endArrow=none;startArrow=classic;html=1;rounded=0;startFill=1;endFill=0;" edge="1" parent="1">
          <mxGeometry width="50" height="50" relative="1" as="geometry">
            <mxPoint x="60" y="402" as="sourcePoint" />
            <mxPoint x="227" y="274" as="targetPoint" />
          </mxGeometry>
        </mxCell>
        <mxCell id="-WuvEJEpbSpuTWGnb0q6-17" value="2: Affichage du formulaire de connexion" style="text;html=1;align=center;verticalAlign=middle;resizable=0;points=[];autosize=1;strokeColor=none;fillColor=none;" vertex="1" parent="1">
          <mxGeometry x="-20" y="260" width="230" height="30" as="geometry" />
        </mxCell>
        <mxCell id="-WuvEJEpbSpuTWGnb0q6-18" value="3, 4.1.1: Remplissage et soumission du formulaire" style="text;html=1;align=center;verticalAlign=middle;resizable=0;points=[];autosize=1;strokeColor=none;fillColor=none;" vertex="1" parent="1">
          <mxGeometry x="54" y="440" width="290" height="30" as="geometry" />
        </mxCell>
        <mxCell id="-WuvEJEpbSpuTWGnb0q6-19" value="5: Traitement de la requete&lt;br/&gt;" style="text;html=1;align=center;verticalAlign=middle;resizable=0;points=[];autosize=1;strokeColor=none;fillColor=none;" vertex="1" parent="1">
          <mxGeometry x="780" y="490" width="170" height="30" as="geometry" />
        </mxCell>
        <mxCell id="-WuvEJEpbSpuTWGnb0q6-20" value="4.2: Envoi de la requete à la BD" style="text;html=1;align=center;verticalAlign=middle;resizable=0;points=[];autosize=1;strokeColor=none;fillColor=none;" vertex="1" parent="1">
          <mxGeometry x="570" y="320" width="190" height="30" as="geometry" />
        </mxCell>
        <mxCell id="-WuvEJEpbSpuTWGnb0q6-21" value="6.1:retournerErreurs(listeErreurs)" style="text;html=1;align=center;verticalAlign=middle;resizable=0;points=[];autosize=1;strokeColor=none;fillColor=none;" vertex="1" parent="1">
          <mxGeometry x="430" y="450" width="200" height="30" as="geometry" />
        </mxCell>
        <mxCell id="-WuvEJEpbSpuTWGnb0q6-22" value="" style="endArrow=none;startArrow=classic;html=1;rounded=0;startFill=1;endFill=0;" edge="1" parent="1">
          <mxGeometry width="50" height="50" relative="1" as="geometry">
            <mxPoint x="551" y="350" as="sourcePoint" />
            <mxPoint x="460" y="263" as="targetPoint" />
          </mxGeometry>
        </mxCell>
        <mxCell id="-WuvEJEpbSpuTWGnb0q6-23" value="" style="endArrow=classic;startArrow=none;html=1;rounded=0;startFill=0;endFill=1;" edge="1" parent="1">
          <mxGeometry width="50" height="50" relative="1" as="geometry">
            <mxPoint x="651" y="490" as="sourcePoint" />
            <mxPoint x="560" y="403" as="targetPoint" />
          </mxGeometry>
        </mxCell>
        <mxCell id="-WuvEJEpbSpuTWGnb0q6-24" value="4.1: : Message d&#39;erreur et renvoi du formulaire" style="text;html=1;align=center;verticalAlign=middle;resizable=0;points=[];autosize=1;strokeColor=none;fillColor=none;" vertex="1" parent="1">
          <mxGeometry x="-80" y="290" width="270" height="30" as="geometry" />
        </mxCell>
        <mxCell id="-WuvEJEpbSpuTWGnb0q6-25" value="6.2:retournerJetons()" style="text;html=1;align=center;verticalAlign=middle;resizable=0;points=[];autosize=1;strokeColor=none;fillColor=none;" vertex="1" parent="1">
          <mxGeometry x="460" y="470" width="140" height="30" as="geometry" />
        </mxCell>
        <mxCell id="-WuvEJEpbSpuTWGnb0q6-26" value="6:messageSuccess()" style="text;html=1;align=center;verticalAlign=middle;resizable=0;points=[];autosize=1;strokeColor=none;fillColor=none;" vertex="1" parent="1">
          <mxGeometry x="-30" y="320" width="140" height="30" as="geometry" />
        </mxCell>
        <mxCell id="-WuvEJEpbSpuTWGnb0q6-28" value="&lt;font style=&quot;font-size: 15px;&quot;&gt;Diagramme de communication créer compte&lt;br/&gt;&lt;/font&gt;" style="shape=umlFrame;whiteSpace=wrap;html=1;pointerEvents=0;recursiveResize=0;container=1;collapsible=0;width=330;movable=1;resizable=1;rotatable=1;deletable=1;editable=1;locked=0;connectable=1;height=40;" vertex="1" parent="1">
          <mxGeometry x="-110" y="800" width="1060" height="580" as="geometry" />
        </mxCell>
        <mxCell id="-WuvEJEpbSpuTWGnb0q6-29" value="Utilisateur" style="shape=umlActor;verticalLabelPosition=bottom;verticalAlign=top;html=1;outlineConnect=0;" vertex="1" parent="1">
          <mxGeometry x="-80" y="1190" width="30" height="60" as="geometry" />
        </mxCell>
        <mxCell id="-WuvEJEpbSpuTWGnb0q6-30" style="edgeStyle=orthogonalEdgeStyle;rounded=1;orthogonalLoop=1;jettySize=auto;html=1;exitX=0.75;exitY=0;exitDx=0;exitDy=0;entryX=1.003;entryY=0.648;entryDx=0;entryDy=0;entryPerimeter=0;endArrow=none;endFill=0;" edge="1" target="-WuvEJEpbSpuTWGnb0q6-33" parent="1">
          <mxGeometry relative="1" as="geometry">
            <mxPoint x="421" y="910" as="targetPoint" />
            <mxPoint x="385" y="890" as="sourcePoint" />
            <Array as="points">
              <mxPoint x="385" y="870" />
              <mxPoint x="460" y="870" />
              <mxPoint x="460" y="909" />
            </Array>
          </mxGeometry>
        </mxCell>
        <mxCell id="-WuvEJEpbSpuTWGnb0q6-31" style="rounded=0;orthogonalLoop=1;jettySize=auto;html=1;exitX=1;exitY=1;exitDx=0;exitDy=0;entryX=0;entryY=0;entryDx=0;entryDy=0;endArrow=none;endFill=0;" edge="1" source="-WuvEJEpbSpuTWGnb0q6-33" target="-WuvEJEpbSpuTWGnb0q6-34" parent="1">
          <mxGeometry relative="1" as="geometry" />
        </mxCell>
        <mxCell id="-WuvEJEpbSpuTWGnb0q6-32" style="rounded=0;orthogonalLoop=1;jettySize=auto;html=1;exitX=0;exitY=1;exitDx=0;exitDy=0;entryX=0.5;entryY=0;entryDx=0;entryDy=0;entryPerimeter=0;endArrow=none;endFill=0;" edge="1" source="-WuvEJEpbSpuTWGnb0q6-33" target="-WuvEJEpbSpuTWGnb0q6-29" parent="1">
          <mxGeometry relative="1" as="geometry" />
        </mxCell>
        <mxCell id="-WuvEJEpbSpuTWGnb0q6-33" value=":Systeme" style="rounded=0;whiteSpace=wrap;html=1;" vertex="1" parent="1">
          <mxGeometry x="294" y="890" width="120" height="30" as="geometry" />
        </mxCell>
        <mxCell id="-WuvEJEpbSpuTWGnb0q6-34" value="Base de  données" style="rounded=0;whiteSpace=wrap;html=1;" vertex="1" parent="1">
          <mxGeometry x="720" y="1209.97" width="120" height="30" as="geometry" />
        </mxCell>
        <mxCell id="-WuvEJEpbSpuTWGnb0q6-35" style="edgeStyle=orthogonalEdgeStyle;rounded=1;orthogonalLoop=1;jettySize=auto;html=1;exitX=0.75;exitY=0;exitDx=0;exitDy=0;entryX=1;entryY=0.75;entryDx=0;entryDy=0;endArrow=none;endFill=0;" edge="1" source="-WuvEJEpbSpuTWGnb0q6-34" target="-WuvEJEpbSpuTWGnb0q6-34" parent="1">
          <mxGeometry relative="1" as="geometry">
            <Array as="points">
              <mxPoint x="810" y="1190" />
              <mxPoint x="880" y="1190" />
              <mxPoint x="880" y="1233" />
            </Array>
          </mxGeometry>
        </mxCell>
        <mxCell id="-WuvEJEpbSpuTWGnb0q6-36" value="" style="endArrow=classic;startArrow=none;html=1;rounded=0;startFill=0;" edge="1" parent="1">
          <mxGeometry width="50" height="50" relative="1" as="geometry">
            <mxPoint x="10" y="1172" as="sourcePoint" />
            <mxPoint x="117" y="1090" as="targetPoint" />
          </mxGeometry>
        </mxCell>
        <mxCell id="-WuvEJEpbSpuTWGnb0q6-37" value="1: Demande de  d&#39;inscription" style="text;html=1;align=center;verticalAlign=middle;resizable=0;points=[];autosize=1;strokeColor=none;fillColor=none;" vertex="1" parent="1">
          <mxGeometry x="35" y="1150" width="170" height="30" as="geometry" />
        </mxCell>
        <mxCell id="-WuvEJEpbSpuTWGnb0q6-38" value="4. Vérification des champs" style="text;html=1;align=center;verticalAlign=middle;resizable=0;points=[];autosize=1;strokeColor=none;fillColor=none;" vertex="1" parent="1">
          <mxGeometry x="370" y="840" width="160" height="30" as="geometry" />
        </mxCell>
        <mxCell id="-WuvEJEpbSpuTWGnb0q6-39" value="" style="endArrow=none;startArrow=classic;html=1;rounded=0;startFill=1;endFill=0;" edge="1" parent="1">
          <mxGeometry width="50" height="50" relative="1" as="geometry">
            <mxPoint x="60" y="1082" as="sourcePoint" />
            <mxPoint x="227" y="954" as="targetPoint" />
          </mxGeometry>
        </mxCell>
        <mxCell id="-WuvEJEpbSpuTWGnb0q6-40" value="2: Affichage du formulaire de connexion" style="text;html=1;align=center;verticalAlign=middle;resizable=0;points=[];autosize=1;strokeColor=none;fillColor=none;" vertex="1" parent="1">
          <mxGeometry x="-20" y="940" width="230" height="30" as="geometry" />
        </mxCell>
        <mxCell id="-WuvEJEpbSpuTWGnb0q6-41" value="3, 4.1.1: Remplissage et soumission du formulaire" style="text;html=1;align=center;verticalAlign=middle;resizable=0;points=[];autosize=1;strokeColor=none;fillColor=none;" vertex="1" parent="1">
          <mxGeometry x="65" y="1120" width="290" height="30" as="geometry" />
        </mxCell>
        <mxCell id="-WuvEJEpbSpuTWGnb0q6-42" value="5: Traitement de la requete&lt;br/&gt;" style="text;html=1;align=center;verticalAlign=middle;resizable=0;points=[];autosize=1;strokeColor=none;fillColor=none;" vertex="1" parent="1">
          <mxGeometry x="780" y="1165" width="170" height="30" as="geometry" />
        </mxCell>
        <mxCell id="-WuvEJEpbSpuTWGnb0q6-43" value="4.2: Envoi de la requete à la BD" style="text;html=1;align=center;verticalAlign=middle;resizable=0;points=[];autosize=1;strokeColor=none;fillColor=none;" vertex="1" parent="1">
          <mxGeometry x="570" y="1000" width="190" height="30" as="geometry" />
        </mxCell>
        <mxCell id="-WuvEJEpbSpuTWGnb0q6-44" value="5.1:retournerErreurs(listeErreurs)" style="text;html=1;align=center;verticalAlign=middle;resizable=0;points=[];autosize=1;strokeColor=none;fillColor=none;" vertex="1" parent="1">
          <mxGeometry x="430" y="1130" width="200" height="30" as="geometry" />
        </mxCell>
        <mxCell id="-WuvEJEpbSpuTWGnb0q6-45" value="" style="endArrow=none;startArrow=classic;html=1;rounded=0;startFill=1;endFill=0;" edge="1" parent="1">
          <mxGeometry width="50" height="50" relative="1" as="geometry">
            <mxPoint x="551" y="1030" as="sourcePoint" />
            <mxPoint x="460" y="943" as="targetPoint" />
          </mxGeometry>
        </mxCell>
        <mxCell id="-WuvEJEpbSpuTWGnb0q6-46" value="" style="endArrow=classic;startArrow=none;html=1;rounded=0;startFill=0;endFill=1;" edge="1" parent="1">
          <mxGeometry width="50" height="50" relative="1" as="geometry">
            <mxPoint x="651" y="1170" as="sourcePoint" />
            <mxPoint x="560" y="1083" as="targetPoint" />
          </mxGeometry>
        </mxCell>
        <mxCell id="-WuvEJEpbSpuTWGnb0q6-47" value="4.1: : Message d&#39;erreur et renvoi du formulaire" style="text;html=1;align=center;verticalAlign=middle;resizable=0;points=[];autosize=1;strokeColor=none;fillColor=none;" vertex="1" parent="1">
          <mxGeometry x="-80" y="970" width="270" height="30" as="geometry" />
        </mxCell>
        <mxCell id="-WuvEJEpbSpuTWGnb0q6-48" value="5.2:retournerJetons()" style="text;html=1;align=center;verticalAlign=middle;resizable=0;points=[];autosize=1;strokeColor=none;fillColor=none;" vertex="1" parent="1">
          <mxGeometry x="460" y="1150" width="140" height="30" as="geometry" />
        </mxCell>
        <mxCell id="-WuvEJEpbSpuTWGnb0q6-49" value="6: Compte créé avec succès" style="text;html=1;align=center;verticalAlign=middle;resizable=0;points=[];autosize=1;strokeColor=none;fillColor=none;" vertex="1" parent="1">
          <mxGeometry x="-45" y="1000" width="170" height="30" as="geometry" />
        </mxCell>
      </root>
    </mxGraphModel>
  </diagram>
</mxfile>
